<svg xmlns="http://www.w3.org/2000/svg" viewBox="0 0 24 24" fill="none">
  <circle cx="7.2" cy="9.1" r="1.2" fill="#4A90E2"/>
  <circle cx="9.3" cy="10.2" r="1.05" fill="#4A90E2"/>
  <circle cx="7.9" cy="12.2" r="1.1" fill="#4A90E2"/>

  <circle cx="15.6" cy="7.6" r="1.1" fill="#59B85A"/>
  <circle cx="17.8" cy="8.9" r="1" fill="#59B85A"/>
  <circle cx="16.5" cy="10.9" r="1.05" fill="#59B85A"/>

  <circle cx="14.4" cy="15.1" r="1.15" fill="#E65757"/>
  <circle cx="16.7" cy="16.1" r="1" fill="#E65757"/>
  <circle cx="15.2" cy="18.1" r="1.05" fill="#E65757"/>

  <path d="M4.8 7.2c1.1-2 4.1-2.6 6-.9 1.5 1.3 1.9 3.6.8 5.3-1.1 1.9-4 2.6-5.9 1.4-1.9-1.3-2.4-4-.9-5.8Z"
        fill="#EEF4FF" stroke="#2E4D7B" stroke-width="1.3"/>
  <path d="M13.3 6.1c1.1-1.2 3.2-1.5 4.8-.6 1.7 1 2.3 3.1 1.3 4.8-.9 1.6-3 2.2-4.6 1.4-1.7-.8-2.5-3.5-1.5-5.6Z"
        fill="#F2FFF3" stroke="#2E4D7B" stroke-width="1.3"/>
  <path d="M12.4 14.1c1.4-1.3 3.9-1.4 5.4-.1 1.6 1.2 2 3.6.8 5.2-1.1 1.5-3.4 1.9-5 .9-1.9-1.1-2.5-4.2-1.2-6Z"
        fill="#FFF3F3" stroke="#2E4D7B" stroke-width="1.3"/>

  <path d="M10.9 13.1 12.5 14.4" stroke="#D97A2F" stroke-width="1.8" stroke-linecap="round"/>
  <path d="M11.1 8.8 13.3 8.7" stroke="#D97A2F" stroke-width="1.8" stroke-linecap="round"/>
</svg>
