<svg xmlns="http://www.w3.org/2000/svg" viewBox="0 0 24 24" fill="none">
  <path d="M3 8.5a2 2 0 0 1 2-2h5l1.6 1.8H19a2 2 0 0 1 2 2v6.5a2 2 0 0 1-2 2H5a2 2 0 0 1-2-2z" fill="#EEF4FF" stroke="#2E4D7B" stroke-width="1.6"/>
  <path d="M12 4v5.7" stroke="#F08B24" stroke-width="1.9" stroke-linecap="round"/>
  <path d="m9.4 7.8 2.6 2.6 2.6-2.6" stroke="#F08B24" stroke-width="1.9" stroke-linecap="round" stroke-linejoin="round"/>
  <path d="M7.2 17.1 9.6 12.8l4-1.3 3 3.1-2.6 3.2-4.8.4Z" fill="#EEF7F1" stroke="#2E4D7B" stroke-width="1.15" stroke-linejoin="round"/>
  <path d="M9.6 12.8 12 15.1 13.6 11.5" stroke="#D97A2F" stroke-width="1.2" stroke-linecap="round" stroke-linejoin="round"/>
  <path d="M12 15.1 16.6 14.6" stroke="#D97A2F" stroke-width="1.2" stroke-linecap="round"/>
  <path d="M12 15.1 14 17.8" stroke="#D97A2F" stroke-width="1.2" stroke-linecap="round"/>
  <path d="M12 15.1 8.1 17.9" stroke="#D97A2F" stroke-width="1.2" stroke-linecap="round"/>
  <circle cx="9.6" cy="12.8" r="0.9" fill="#4A90E2"/>
  <circle cx="13.6" cy="11.5" r="0.9" fill="#59B85A"/>
  <circle cx="16.6" cy="14.6" r="0.85" fill="#E65757"/>
  <circle cx="14" cy="17.8" r="0.85" fill="#59B85A"/>
  <circle cx="8.1" cy="17.9" r="0.85" fill="#4A90E2"/>
  <circle cx="12" cy="15.1" r="0.95" fill="#FFD36A" stroke="#2E4D7B" stroke-width="0.35"/>
</svg>
