<svg xmlns="http://www.w3.org/2000/svg" viewBox="0 0 24 24" fill="none">
  <path d="M3 8.5a2 2 0 0 1 2-2h5l1.6 1.8H19a2 2 0 0 1 2 2v6.5a2 2 0 0 1-2 2H5a2 2 0 0 1-2-2z"
        fill="#EEF4FF" stroke="#2E4D7B" stroke-width="1.6"/>

  <rect x="5.6" y="10.4" width="3.8" height="2.9" rx="0.7" stroke="#4A90E2" stroke-width="1.3"/>
  <rect x="10.1" y="9.1" width="4.2" height="3.2" rx="0.75" stroke="#59B85A" stroke-width="1.3"/>
  <rect x="14.5" y="12.2" width="3.9" height="3" rx="0.75" stroke="#E65757" stroke-width="1.3"/>

  <circle cx="7.1" cy="11.85" r="0.75" fill="#4A90E2"/>
  <circle cx="12.2" cy="10.7" r="0.75" fill="#59B85A"/>
  <circle cx="16.45" cy="13.75" r="0.75" fill="#E65757"/>

  <path d="M12 4v4.1" stroke="#F08B24" stroke-width="1.9" stroke-linecap="round"/>
  <path d="m9.5 6.4 2.5 2.5 2.5-2.5" stroke="#F08B24" stroke-width="1.9" stroke-linecap="round" stroke-linejoin="round"/>
</svg>
