<svg xmlns="http://www.w3.org/2000/svg" viewBox="0 0 24 24" fill="none">
  <path d="M3.8 14.8 7.8 7.1l7.1-2.5 4 6.1-4 7.1-7.9.7Z"
        fill="#EEF7F1" stroke="#2E4D7B" stroke-width="1.25" stroke-linejoin="round"/>
  <path d="M7.8 7.1 11.4 10.4 14.9 4.6" stroke="#D97A2F" stroke-width="1.3" stroke-linecap="round" stroke-linejoin="round"/>
  <path d="M11.4 10.4 18.9 10.7" stroke="#D97A2F" stroke-width="1.3" stroke-linecap="round"/>
  <path d="M11.4 10.4 14.8 17.8" stroke="#D97A2F" stroke-width="1.3" stroke-linecap="round"/>
  <path d="M11.4 10.4 6.9 18.5" stroke="#D97A2F" stroke-width="1.3" stroke-linecap="round"/>
  <circle cx="7.8" cy="7.1" r="1.0" fill="#4A90E2"/>
  <circle cx="14.9" cy="4.6" r="1.0" fill="#59B85A"/>
  <circle cx="18.9" cy="10.7" r="0.95" fill="#E65757"/>
  <circle cx="14.8" cy="17.8" r="0.95" fill="#59B85A"/>
  <circle cx="6.9" cy="18.5" r="0.95" fill="#4A90E2"/>
  <circle cx="11.4" cy="10.4" r="1.05" fill="#FFD36A" stroke="#2E4D7B" stroke-width="0.4"/>
  <rect x="12.8" y="12.4" width="8" height="7.9" rx="1.4" fill="#EEF4FF" stroke="#2E4D7B" stroke-width="1.2"/>
  <rect x="14.6" y="13.8" width="4.2" height="1.8" rx="0.45" fill="#BFD0F0"/>
  <path d="M16.8 8.2v3.3" stroke="#D97A2F" stroke-width="1.6" stroke-linecap="round"/>
  <path d="m14.9 10 1.9 1.9 1.9-1.9" stroke="#D97A2F" stroke-width="1.6" stroke-linecap="round" stroke-linejoin="round"/>
</svg>
