<svg xmlns="http://www.w3.org/2000/svg" viewBox="0 0 24 24" fill="none">
  <path
    d="M10.8 3.2c.7-.8 1.7-.8 2.4 0l.7.8c.3.3.8.5 1.2.4l1-.2c1-.2 1.8.4 2 1.4l.2 1c.1.4.4.8.8 1l.9.5c.9.5 1.2 1.5.8 2.4l-.4.9c-.2.4-.2.9 0 1.3l.4.9c.4.9.1 1.9-.8 2.4l-.9.5c-.4.2-.7.6-.8 1l-.2 1c-.2 1-.9 1.6-2 1.4l-1-.2c-.4-.1-.9.1-1.2.4l-.7.8c-.7.8-1.7.8-2.4 0l-.7-.8c-.3-.3-.8-.5-1.2-.4l-1 .2c-1 .2-1.8-.4-2-1.4l-.2-1c-.1-.4-.4-.8-.8-1l-.9-.5c-.9-.5-1.2-1.5-.8-2.4l.4-.9c.2-.4.2-.9 0-1.3l-.4-.9c-.4-.9-.1-1.9.8-2.4l.9-.5c.4-.2.7-.6.8-1l.2-1c.2-1 .9-1.6 2-1.4l1 .2c.4.1.9-.1 1.2-.4z"
    fill="#EEF4FF"
    stroke="#2E4D7B"
    stroke-width="1.4"
    stroke-linejoin="round"
  />
  <circle cx="12" cy="12" r="3.2" fill="#F08B24" stroke="#2E4D7B" stroke-width="1.4"/>
</svg>
